<svg width="69" height="25" viewBox="0 0 69 25" fill="none" xmlns="http://www.w3.org/2000/svg">
<rect width="69" height="25" rx="12.5" fill="#FD5A6D"/>
<path d="M22.6457 7.37H23.8007V14.652H22.6457V7.37ZM17.2337 16.28H24.0867V17.215H17.2337V16.28ZM17.2337 13.915H18.3887V16.632H17.2337V13.915ZM18.3777 8.041C19.8957 8.041 21.0397 9.075 21.0397 10.549C21.0397 12.001 19.8957 13.057 18.3777 13.057C16.8597 13.057 15.7047 12.001 15.7047 10.549C15.7047 9.075 16.8597 8.041 18.3777 8.041ZM18.3777 9.031C17.4977 9.031 16.8267 9.625 16.8267 10.549C16.8267 11.451 17.4977 12.045 18.3777 12.045C19.2577 12.045 19.9177 11.451 19.9177 10.549C19.9177 9.625 19.2577 9.031 18.3777 9.031ZM27.8759 12.463H29.0309V14.685H27.8759V12.463ZM32.3089 7.359H33.4639V14.993H32.3089V7.359ZM26.4349 16.28H33.6949V17.215H26.4349V16.28ZM26.4349 14.256H27.5899V16.533H26.4349V14.256ZM25.2359 12.848L25.0819 11.913C26.9299 11.913 29.4049 11.891 31.5279 11.616L31.6049 12.452C29.4489 12.804 27.0509 12.848 25.2359 12.848ZM30.3289 13.255H32.5839V14.069H30.3289V13.255ZM28.3379 7.744C29.8009 7.744 30.8239 8.448 30.8239 9.515C30.8239 10.582 29.8009 11.275 28.3379 11.275C26.8639 11.275 25.8519 10.582 25.8519 9.515C25.8519 8.448 26.8639 7.744 28.3379 7.744ZM28.3379 8.591C27.5129 8.591 26.9409 8.932 26.9409 9.515C26.9409 10.087 27.5129 10.428 28.3379 10.428C29.1519 10.428 29.7239 10.087 29.7239 9.515C29.7239 8.932 29.1519 8.591 28.3379 8.591ZM39.607 9.13H42.357V10.054H39.607V9.13ZM39.607 11.297H42.39V12.221H39.607V11.297ZM41.928 7.37H43.083V14.795H41.928V7.37ZM36.538 16.28H43.314V17.215H36.538V16.28ZM36.538 14.069H37.693V16.786H36.538V14.069ZM35.207 8.03H36.351V9.691H38.716V8.03H39.849V13.145H35.207V8.03ZM36.351 10.582V12.221H38.716V10.582H36.351ZM49.1931 9.097H51.7341V10.021H49.1931V9.097ZM49.1051 11.176H51.6681V12.111H49.1051V11.176ZM51.5471 7.359H52.7021V13.277H51.5471V7.359ZM48.3461 8.085H49.5671C49.5671 10.736 47.8951 12.529 44.9361 13.376L44.4741 12.463C47.0371 11.759 48.3461 10.373 48.3461 8.613V8.085ZM45.0131 8.085H49.1381V9.009H45.0131V8.085ZM49.4021 13.398C51.4371 13.398 52.7571 14.146 52.7571 15.378C52.7571 16.61 51.4371 17.369 49.4021 17.369C47.3671 17.369 46.0471 16.61 46.0471 15.378C46.0471 14.146 47.3671 13.398 49.4021 13.398ZM49.4021 14.289C48.0381 14.289 47.1801 14.685 47.1801 15.378C47.1801 16.071 48.0381 16.456 49.4021 16.456C50.7771 16.456 51.6241 16.071 51.6241 15.378C51.6241 14.685 50.7771 14.289 49.4021 14.289Z" fill="white"/>
</svg>
