<svg width="56" height="56" viewBox="0 0 56 56" fill="none" xmlns="http://www.w3.org/2000/svg">
<rect width="56" height="56" rx="28" fill="black"/>
<path d="M32 20.0002C32 19.7241 31.7761 19.5002 31.5 19.5002C31.2239 19.5002 31 19.7241 31 20.0002V26.0002C31 26.2764 31.2239 26.5002 31.5 26.5002C31.7761 26.5002 32 26.2764 32 26.0002V20.0002Z" fill="white"/>
<path fill-rule="evenodd" clip-rule="evenodd" d="M38 20.9567V15.4124H18V30.5876H38V25.0433C36.8102 25.0433 35.8457 24.1285 35.8457 23C35.8457 21.8715 36.8102 20.9567 38 20.9567ZM19 16.4124H37V20.1143C35.7706 20.5122 34.8457 21.6244 34.8457 23C34.8457 24.3756 35.7706 25.4878 37 25.8857V29.5876H19V16.4124Z" fill="white"/>
<path d="M16.0224 42.029V40.04H14.0064V42.029H16.0224ZM16.0224 39.302V37.232H16.9404V42.776H13.0794V37.232H14.0064V39.302H16.0224ZM20.3604 39.689V40.463H19.0914V44.702H18.1644V36.566H19.0914V39.689H20.3604ZM24.6107 42.974H27.8417V43.739H20.4797V42.974H23.6837V41.588H21.3707V38.969H26.0507V37.88H21.3527V37.133H26.9687V39.707H22.2797V40.841H27.1487V41.588H24.6107V42.974ZM31.669 40.949H32.605V39.212H31.669C31.714 39.482 31.732 39.77 31.732 40.085C31.732 40.4 31.714 40.679 31.669 40.949ZM29.986 42.092C30.544 42.092 30.895 41.372 30.895 40.085C30.895 38.798 30.544 38.069 29.986 38.069C29.428 38.069 29.077 38.798 29.077 40.085C29.077 41.372 29.428 42.092 29.986 42.092ZM32.605 38.447V36.719H33.469V44.306H32.605V41.705H31.489C31.201 42.497 30.67 42.965 29.986 42.965C28.933 42.965 28.24 41.867 28.24 40.085C28.24 38.294 28.933 37.196 29.986 37.196C30.661 37.196 31.201 37.646 31.48 38.447H32.605ZM34.216 36.566H35.098V44.684H34.216V36.566ZM36.9723 38.195V41.84H38.3763V38.195H36.9723ZM36.1083 42.578V37.457H39.2403V42.578H36.1083ZM41.8953 36.566H42.7773V44.684H41.8953V40.49H40.9683V44.306H40.0953V36.719H40.9683V39.734H41.8953V36.566Z" fill="white"/>
</svg>
