<svg width="24" height="24" viewBox="0 0 24 24" fill="none" xmlns="http://www.w3.org/2000/svg">
<path fill-rule="evenodd" clip-rule="evenodd" d="M18.0013 7.94385H5.92469C5.31621 7.94385 4.84877 8.48272 4.93472 9.0851L5.20278 10.9639H11.9589V7.94775H12.9589V10.9639H18.729L18.9917 9.08212C19.0756 8.48068 18.6086 7.94385 18.0013 7.94385ZM11.9589 11.9639H5.34546L6.36951 19.1411C6.43981 19.6339 6.86177 19.9999 7.35949 19.9999H11.9589L11.9589 11.9639ZM12.9589 19.9999L12.9589 11.9639H18.5893L17.5877 19.1382C17.5187 19.6322 17.0962 19.9999 16.5973 19.9999H12.9589ZM5.92469 6.94385C4.70773 6.94385 3.77285 8.02159 3.94474 9.22635L5.37954 19.2824C5.52014 20.2678 6.36405 20.9999 7.35949 20.9999L16.5973 20.9999C17.595 20.9999 18.4401 20.2646 18.5781 19.2764L19.9821 9.2204C20.15 8.01752 19.2158 6.94385 18.0013 6.94385H5.92469Z" fill="black"/>
<path d="M11.7637 6.94404C11.7637 6.94403 11.7637 6.94404 11.7637 6.94404ZM11.7637 6.94404C12.4178 5.10336 14.1186 1.82362 15.6886 3.43002C17.2585 5.03643 13.7261 6.44204 11.7637 6.94404Z" stroke="black"/>
<path d="M12.1543 6.94404C12.1543 6.94403 12.1543 6.94404 12.1543 6.94404ZM12.1543 6.94404C11.5001 5.10336 9.79935 1.82362 8.22939 3.43002C6.65943 5.03643 10.1918 6.44204 12.1543 6.94404Z" stroke="black"/>
</svg>
