<svg width="24" height="24" viewBox="0 0 24 24" fill="none" xmlns="http://www.w3.org/2000/svg">
<g id="ic_home_black_24">
<g id="Vector">
<path d="M12.0866 4.43034C11.8759 4.25237 11.5626 4.25707 11.3577 4.44128L2.8275 12.1078C2.60437 12.3083 2.58948 12.6481 2.79423 12.8666C2.99898 13.0851 3.34584 13.0997 3.56897 12.8992L11.7396 5.55576L20.4434 12.9101C20.6727 13.1039 21.0189 13.0789 21.2167 12.8543C21.4146 12.6297 21.389 12.2906 21.1597 12.0969L12.0866 4.43034Z" fill="black"/>
<path d="M17.8496 12.0272C18.1524 12.0272 18.3979 12.2676 18.3979 12.5642V19.1629C18.3979 19.4595 18.1524 19.6999 17.8496 19.6999H13.4597C13.1569 19.6999 12.9114 19.4595 12.9114 19.1629H12.8397C12.8397 18.7071 12.4624 18.3376 11.997 18.3376C11.5316 18.3376 11.1544 18.7071 11.1544 19.1629H11.0815C11.0815 19.4595 10.836 19.6999 10.5332 19.6999H6.14336C5.84053 19.6999 5.59503 19.4595 5.59503 19.1629V12.71C5.59503 12.4134 5.84053 12.173 6.14336 12.173C6.44619 12.173 6.69169 12.4134 6.69169 12.71V18.6258H10.1363C10.3729 17.8383 11.1164 17.2635 11.997 17.2635C12.8776 17.2635 13.6212 17.8383 13.8577 18.6258H17.3012V12.5642C17.3012 12.2676 17.5467 12.0272 17.8496 12.0272Z" fill="black"/>
</g>
</g>
</svg>
