<svg width="24" height="24" viewBox="0 0 24 24" fill="none" xmlns="http://www.w3.org/2000/svg">
<path fill-rule="evenodd" clip-rule="evenodd" d="M13.6187 14.0145C15.3254 13.2165 16.5079 11.4841 16.5079 9.47559C16.5079 6.70985 14.2658 4.46777 11.5001 4.46777C8.73434 4.46777 6.49227 6.70985 6.49227 9.47559C6.49227 11.4839 7.67442 13.216 9.38082 14.0142C6.08744 14.8176 3.51206 17.4523 2.79369 20.7781C2.74996 20.9805 2.87862 21.1801 3.08106 21.2238C3.2835 21.2675 3.48305 21.1389 3.52678 20.9364C4.32024 17.263 7.58871 14.5107 11.4991 14.5107C15.4096 14.5107 18.6781 17.263 19.4715 20.9364C19.5152 21.1389 19.7148 21.2675 19.9172 21.2238C20.1197 21.1801 20.2483 20.9805 20.2046 20.7781C19.4863 17.4527 16.9115 14.8183 13.6187 14.0145ZM15.7579 9.47559C15.7579 11.8271 13.8516 13.7334 11.5001 13.7334C9.14855 13.7334 7.24227 11.8271 7.24227 9.47559C7.24227 7.12406 9.14855 5.21777 11.5001 5.21777C13.8516 5.21777 15.7579 7.12406 15.7579 9.47559Z" fill="black" stroke="black" stroke-width="0.2" stroke-linecap="round"/>
</svg>
