<svg width="24" height="24" viewBox="0 0 24 24" fill="none" xmlns="http://www.w3.org/2000/svg">
<path fill-rule="evenodd" clip-rule="evenodd" d="M19.334 7.70996C19.334 8.62414 18.5929 9.36523 17.6787 9.36523C16.7645 9.36523 16.0234 8.62414 16.0234 7.70996C16.0234 6.79578 16.7645 6.05469 17.6787 6.05469C18.5929 6.05469 19.334 6.79578 19.334 7.70996ZM18.584 7.70996C18.584 8.20993 18.1787 8.61523 17.6787 8.61523C17.1787 8.61523 16.7734 8.20993 16.7734 7.70996C16.7734 7.20999 17.1787 6.80469 17.6787 6.80469C18.1787 6.80469 18.584 7.20999 18.584 7.70996Z" fill="black"/>
<path d="M5.16797 7.20996C4.89183 7.20996 4.66797 7.43382 4.66797 7.70996C4.66797 7.9861 4.89183 8.20996 5.16797 8.20996H14.5762C14.8523 8.20996 15.0762 7.9861 15.0762 7.70996C15.0762 7.43382 14.8523 7.20996 14.5762 7.20996H5.16797Z" fill="black"/>
<path d="M5.16797 12.0776C4.89183 12.0776 4.66797 12.3015 4.66797 12.5776C4.66797 12.8538 4.89183 13.0776 5.16797 13.0776H18.6406C18.9168 13.0776 19.1406 12.8538 19.1406 12.5776C19.1406 12.3015 18.9168 12.0776 18.6406 12.0776H5.16797Z" fill="black"/>
<path d="M4.66797 17.4453C4.66797 17.1692 4.89183 16.9453 5.16797 16.9453H18.6406C18.9168 16.9453 19.1406 17.1692 19.1406 17.4453C19.1406 17.7215 18.9168 17.9453 18.6406 17.9453H5.16797C4.89183 17.9453 4.66797 17.7215 4.66797 17.4453Z" fill="black"/>
</svg>
