<svg width="24" height="24" viewBox="0 0 24 24" fill="none" xmlns="http://www.w3.org/2000/svg">
<path fill-rule="evenodd" clip-rule="evenodd" d="M21 4H6C4.34315 4 3 5.34315 3 7V15.1579H8.89844V16.1579H3H2V15.1579V7C2 4.79086 3.79086 3 6 3H21H22V4V12.1579C22 14.367 20.2091 16.1579 18 16.1579H15.8984V15.1579H18C19.6569 15.1579 21 13.8148 21 12.1579V4ZM4.49902 20.0271C4.49902 19.751 4.72288 19.5271 4.99902 19.5271H6.99902C7.27517 19.5271 7.49902 19.751 7.49902 20.0271V21H8.49902V20.0271C8.49902 19.1987 7.82745 18.5271 6.99902 18.5271H4.99902C4.1706 18.5271 3.49902 19.1987 3.49902 20.0271V21H4.49902V20.0271ZM10.5 20.0271C10.5 19.751 10.7239 19.5271 11 19.5271H13C13.2761 19.5271 13.5 19.751 13.5 20.0271V21H14.5V20.0271C14.5 19.1987 13.8284 18.5271 13 18.5271H11C10.1716 18.5271 9.5 19.1987 9.5 20.0271V21H10.5V20.0271ZM17.001 19.5271C16.7248 19.5271 16.501 19.751 16.501 20.0271V21H15.501V20.0271C15.501 19.1987 16.1725 18.5271 17.001 18.5271H19.001C19.8294 18.5271 20.501 19.1987 20.501 20.0271V21H19.501V20.0271C19.501 19.751 19.2771 19.5271 19.001 19.5271H17.001Z" fill="black"/>
</svg>
