<svg width="24" height="24" viewBox="0 0 24 24" fill="none" xmlns="http://www.w3.org/2000/svg">
<path d="M16 9.00024C16 8.7241 15.7761 8.50024 15.5 8.50024C15.2239 8.50024 15 8.7241 15 9.00024V15.0002C15 15.2764 15.2239 15.5002 15.5 15.5002C15.7761 15.5002 16 15.2764 16 15.0002V9.00024Z" fill="white"/>
<path fill-rule="evenodd" clip-rule="evenodd" d="M22 9.95674V4.41235H2V19.5876H22V14.0433C20.8102 14.0433 19.8457 13.1285 19.8457 12C19.8457 10.8715 20.8102 9.95674 22 9.95674ZM3 5.41235H21V9.11433C19.7706 9.51221 18.8457 10.6244 18.8457 12C18.8457 13.3756 19.7706 14.4878 21 14.8857V18.5876H3V5.41235Z" fill="white"/>
</svg>
