<svg width="32" height="32" viewBox="0 0 32 32" fill="none" xmlns="http://www.w3.org/2000/svg">
<path d="M20 13.0002C20 12.7241 19.7761 12.5002 19.5 12.5002C19.2239 12.5002 19 12.7241 19 13.0002V19.0002C19 19.2764 19.2239 19.5002 19.5 19.5002C19.7761 19.5002 20 19.2764 20 19.0002V13.0002Z" fill="black"/>
<path fill-rule="evenodd" clip-rule="evenodd" d="M26 13.9567V8.41235H6V23.5876H26V18.0433C24.8102 18.0433 23.8457 17.1285 23.8457 16C23.8457 14.8715 24.8102 13.9567 26 13.9567ZM7 9.41235H25V13.1143C23.7706 13.5122 22.8457 14.6244 22.8457 16C22.8457 17.3756 23.7706 18.4878 25 18.8857V22.5876H7V9.41235Z" fill="black"/>
</svg>
