<svg width="204" height="63" viewBox="0 0 204 63" fill="none" xmlns="http://www.w3.org/2000/svg">
<path d="M0 2.68421C0 1.20176 1.20176 0 2.68421 0H8.31579C9.79824 0 11 1.20176 11 2.68421V8H0V2.68421Z" fill="#1EAFFD"/>
<path d="M14 2.68421C14 1.20176 15.2018 0 16.6842 0H22.3158C23.7982 0 25 1.20176 25 2.68421V8H14V2.68421Z" fill="#1EAFFD"/>
<path d="M39 2.68421C39 1.20176 40.2018 0 41.6842 0H47.3158C48.7982 0 50 1.20176 50 2.68421V8H39V2.68421Z" fill="#1EAFFD"/>
<path d="M53 2.68421C53 1.20176 54.2018 0 55.6842 0H61.3158C62.7982 0 64 1.20176 64 2.68421V8H53V2.68421Z" fill="#1EAFFD"/>
<path d="M67 2.68421C67 1.20176 68.2018 0 69.6842 0H75.3158C76.7982 0 78 1.20176 78 2.68421V8H67V2.68421Z" fill="#1EAFFD"/>
<path d="M81 2.68421C81 1.20176 82.2018 0 83.6842 0H89.3158C90.7982 0 92 1.20176 92 2.68421V8H81V2.68421Z" fill="#1EAFFD"/>
<path d="M95 2.68421C95 1.20176 96.2018 0 97.6842 0H103.316C104.798 0 106 1.20176 106 2.68421V8H95V2.68421Z" fill="#1EAFFD"/>
<path d="M109 2.68421C109 1.20176 110.202 0 111.684 0H117.316C118.798 0 120 1.20176 120 2.68421V8H109V2.68421Z" fill="#1EAFFD"/>
<path d="M123 2.68421C123 1.20176 124.202 0 125.684 0H131.316C132.798 0 134 1.20176 134 2.68421V8H123V2.68421Z" fill="#1EAFFD"/>
<path d="M137 2.68421C137 1.20176 138.202 0 139.684 0H145.316C146.798 0 148 1.20176 148 2.68421V8H137V2.68421Z" fill="#1EAFFD"/>
<path d="M151 2.68421C151 1.20176 152.202 0 153.684 0H159.316C160.798 0 162 1.20176 162 2.68421V8H151V2.68421Z" fill="#1EAFFD"/>
<path d="M0 13.6842C0 12.2018 1.20176 11 2.68421 11H8.31579C9.79824 11 11 12.2018 11 13.6842V19H0V13.6842Z" fill="#1EAFFD"/>
<path d="M14 13.6842C14 12.2018 15.2018 11 16.6842 11H22.3158C23.7982 11 25 12.2018 25 13.6842V19H14V13.6842Z" fill="#1EAFFD"/>
<path d="M39 13.6842C39 12.2018 40.2018 11 41.6842 11H47.3158C48.7982 11 50 12.2018 50 13.6842V19H39V13.6842Z" fill="#1EAFFD"/>
<path d="M53 13.6842C53 12.2018 54.2018 11 55.6842 11H61.3158C62.7982 11 64 12.2018 64 13.6842V19H53V13.6842Z" fill="#1EAFFD"/>
<path d="M67 13.6842C67 12.2018 68.2018 11 69.6842 11H75.3158C76.7982 11 78 12.2018 78 13.6842V19H67V13.6842Z" fill="#1EAFFD"/>
<path d="M81 13.6842C81 12.2018 82.2018 11 83.6842 11H89.3158C90.7982 11 92 12.2018 92 13.6842V19H81V13.6842Z" fill="#1EAFFD"/>
<path d="M95 13.6842C95 12.2018 96.2018 11 97.6842 11H103.316C104.798 11 106 12.2018 106 13.6842V19H95V13.6842Z" fill="#1EAFFD"/>
<path d="M109 13.6842C109 12.2018 110.202 11 111.684 11H117.316C118.798 11 120 12.2018 120 13.6842V19H109V13.6842Z" fill="#1EAFFD"/>
<path d="M123 13.6842C123 12.2018 124.202 11 125.684 11H131.316C132.798 11 134 12.2018 134 13.6842V19H123V13.6842Z" fill="#1EAFFD"/>
<path d="M137 13.6842C137 12.2018 138.202 11 139.684 11H145.316C146.798 11 148 12.2018 148 13.6842V19H137V13.6842Z" fill="#1EAFFD"/>
<path d="M151 13.6842C151 12.2018 152.202 11 153.684 11H159.316C160.798 11 162 12.2018 162 13.6842V19H151V13.6842Z" fill="#1EAFFD"/>
<path d="M176 13.6842C176 12.2018 177.202 11 178.684 11H184.316C185.798 11 187 12.2018 187 13.6842V19H176V13.6842Z" fill="#1EAFFD"/>
<path d="M190 13.6842C190 12.2018 191.202 11 192.684 11H198.316C199.798 11 201 12.2018 201 13.6842V19H190V13.6842Z" fill="#1EAFFD"/>
<path d="M0 24.6842C0 23.2018 1.20176 22 2.68421 22H8.31579C9.79824 22 11 23.2018 11 24.6842V30H0V24.6842Z" fill="#1EAFFD"/>
<path d="M14 24.6842C14 23.2018 15.2018 22 16.6842 22H22.3158C23.7982 22 25 23.2018 25 24.6842V30H14V24.6842Z" fill="#1EAFFD"/>
<path d="M39 24.6842C39 23.2018 40.2018 22 41.6842 22H47.3158C48.7982 22 50 23.2018 50 24.6842V30H39V24.6842Z" fill="#1EAFFD"/>
<path d="M53 24.6842C53 23.2018 54.2018 22 55.6842 22H61.3158C62.7982 22 64 23.2018 64 24.6842V30H53V24.6842Z" fill="#1EAFFD"/>
<path d="M67 24.6842C67 23.2018 68.2018 22 69.6842 22H75.3158C76.7982 22 78 23.2018 78 24.6842V30H67V24.6842Z" fill="#1EAFFD"/>
<path d="M81 24.6842C81 23.2018 82.2018 22 83.6842 22H89.3158C90.7982 22 92 23.2018 92 24.6842V30H81V24.6842Z" fill="#1EAFFD"/>
<path d="M95 24.6842C95 23.2018 96.2018 22 97.6842 22H103.316C104.798 22 106 23.2018 106 24.6842V30H95V24.6842Z" fill="#1EAFFD"/>
<path d="M109 24.6842C109 23.2018 110.202 22 111.684 22H117.316C118.798 22 120 23.2018 120 24.6842V30H109V24.6842Z" fill="#1EAFFD"/>
<path d="M123 24.6842C123 23.2018 124.202 22 125.684 22H131.316C132.798 22 134 23.2018 134 24.6842V30H123V24.6842Z" fill="#1EAFFD"/>
<path d="M137 24.6842C137 23.2018 138.202 22 139.684 22H145.316C146.798 22 148 23.2018 148 24.6842V30H137V24.6842Z" fill="#1EAFFD"/>
<path d="M151 24.6842C151 23.2018 152.202 22 153.684 22H159.316C160.798 22 162 23.2018 162 24.6842V30H151V24.6842Z" fill="#1EAFFD"/>
<path d="M176 24.6842C176 23.2018 177.202 22 178.684 22H184.316C185.798 22 187 23.2018 187 24.6842V30H176V24.6842Z" fill="#1EAFFD"/>
<path d="M190 24.6842C190 23.2018 191.202 22 192.684 22H198.316C199.798 22 201 23.2018 201 24.6842V30H190V24.6842Z" fill="#1EAFFD"/>
<path d="M0 35.6842C0 34.2018 1.20176 33 2.68421 33H8.31579C9.79824 33 11 34.2018 11 35.6842V41H0V35.6842Z" fill="#1EAFFD"/>
<path d="M14 35.6842C14 34.2018 15.2018 33 16.6842 33H22.3158C23.7982 33 25 34.2018 25 35.6842V41H14V35.6842Z" fill="#1EAFFD"/>
<path d="M39 35.6842C39 34.2018 40.2018 33 41.6842 33H47.3158C48.7982 33 50 34.2018 50 35.6842V41H39V35.6842Z" fill="#1EAFFD"/>
<path d="M53 35.6842C53 34.2018 54.2018 33 55.6842 33H61.3158C62.7982 33 64 34.2018 64 35.6842V41H53V35.6842Z" fill="#1EAFFD"/>
<path d="M67 35.6842C67 34.2018 68.2018 33 69.6842 33H75.3158C76.7982 33 78 34.2018 78 35.6842V41H67V35.6842Z" fill="#1EAFFD"/>
<path d="M81 35.6842C81 34.2018 82.2018 33 83.6842 33H89.3158C90.7982 33 92 34.2018 92 35.6842V41H81V35.6842Z" fill="#1EAFFD"/>
<path d="M95 35.6842C95 34.2018 96.2018 33 97.6842 33H103.316C104.798 33 106 34.2018 106 35.6842V41H95V35.6842Z" fill="#1EAFFD"/>
<path d="M109 35.6842C109 34.2018 110.202 33 111.684 33H117.316C118.798 33 120 34.2018 120 35.6842V41H109V35.6842Z" fill="#1EAFFD"/>
<path d="M123 35.6842C123 34.2018 124.202 33 125.684 33H131.316C132.798 33 134 34.2018 134 35.6842V41H123V35.6842Z" fill="#1EAFFD"/>
<path d="M137 35.6842C137 34.2018 138.202 33 139.684 33H145.316C146.798 33 148 34.2018 148 35.6842V41H137V35.6842Z" fill="#1EAFFD"/>
<path d="M151 35.6842C151 34.2018 152.202 33 153.684 33H159.316C160.798 33 162 34.2018 162 35.6842V41H151V35.6842Z" fill="#1EAFFD"/>
<path d="M176 35.6842C176 34.2018 177.202 33 178.684 33H184.316C185.798 33 187 34.2018 187 35.6842V41H176V35.6842Z" fill="#1EAFFD"/>
<path d="M0 46.6842C0 45.2018 1.20176 44 2.68421 44H8.31579C9.79824 44 11 45.2018 11 46.6842V52H0V46.6842Z" fill="#1EAFFD"/>
<path d="M14 46.6842C14 45.2018 15.2018 44 16.6842 44H22.3158C23.7982 44 25 45.2018 25 46.6842V52H14V46.6842Z" fill="#1EAFFD"/>
<path d="M39 46.6842C39 45.2018 40.2018 44 41.6842 44H47.3158C48.7982 44 50 45.2018 50 46.6842V52H39V46.6842Z" fill="#1EAFFD"/>
<path d="M53 46.6842C53 45.2018 54.2018 44 55.6842 44H61.3158C62.7982 44 64 45.2018 64 46.6842V52H53V46.6842Z" fill="#1EAFFD"/>
<path d="M67 46.6842C67 45.2018 68.2018 44 69.6842 44H75.3158C76.7982 44 78 45.2018 78 46.6842V52H67V46.6842Z" fill="#1EAFFD"/>
<path d="M81 46.6842C81 45.2018 82.2018 44 83.6842 44H89.3158C90.7982 44 92 45.2018 92 46.6842V52H81V46.6842Z" fill="#1EAFFD"/>
<path d="M95 46.6842C95 45.2018 96.2018 44 97.6842 44H103.316C104.798 44 106 45.2018 106 46.6842V52H95V46.6842Z" fill="#1EAFFD"/>
<path d="M109 46.6842C109 45.2018 110.202 44 111.684 44H117.316C118.798 44 120 45.2018 120 46.6842V52H109V46.6842Z" fill="#1EAFFD"/>
<path d="M123 46.6842C123 45.2018 124.202 44 125.684 44H131.316C132.798 44 134 45.2018 134 46.6842V52H123V46.6842Z" fill="#1EAFFD"/>
<path d="M137 46.6842C137 45.2018 138.202 44 139.684 44H145.316C146.798 44 148 45.2018 148 46.6842V52H137V46.6842Z" fill="#1EAFFD"/>
<path d="M151 46.6842C151 45.2018 152.202 44 153.684 44H159.316C160.798 44 162 45.2018 162 46.6842V52H151V46.6842Z" fill="#1EAFFD"/>
<path d="M176 46.6842C176 45.2018 177.202 44 178.684 44H184.316C185.798 44 187 45.2018 187 46.6842V52H176V46.6842Z" fill="#1EAFFD"/>
<path d="M190 46.6842C190 45.2018 191.202 44 192.684 44H198.316C199.798 44 201 45.2018 201 46.6842V52H190V46.6842Z" fill="#1EAFFD"/>
<path d="M0 57.6842C0 56.2018 1.20176 55 2.68421 55H8.31579C9.79824 55 11 56.2018 11 57.6842V63H0V57.6842Z" fill="#1EAFFD"/>
<path d="M14 57.6842C14 56.2018 15.2018 55 16.6842 55H22.3158C23.7982 55 25 56.2018 25 57.6842V63H14V57.6842Z" fill="#1EAFFD"/>
<path d="M39 57.6842C39 56.2018 40.2018 55 41.6842 55H47.3158C48.7982 55 50 56.2018 50 57.6842V63H39V57.6842Z" fill="#1EAFFD"/>
<path d="M53 57.6842C53 56.2018 54.2018 55 55.6842 55H61.3158C62.7982 55 64 56.2018 64 57.6842V63H53V57.6842Z" fill="#1EAFFD"/>
<path d="M67 57.6842C67 56.2018 68.2018 55 69.6842 55H75.3158C76.7982 55 78 56.2018 78 57.6842V63H67V57.6842Z" fill="#0F577E"/>
<path d="M81 57.6842C81 56.2018 82.2018 55 83.6842 55H89.3158C90.7982 55 92 56.2018 92 57.6842V63H81V57.6842Z" fill="#0F577E"/>
<path d="M95 57.6842C95 56.2018 96.2018 55 97.6842 55H103.316C104.798 55 106 56.2018 106 57.6842V63H95V57.6842Z" fill="#1EAFFD"/>
<path d="M109 57.6842C109 56.2018 110.202 55 111.684 55H117.316C118.798 55 120 56.2018 120 57.6842V63H109V57.6842Z" fill="#1EAFFD"/>
<path d="M123 57.6842C123 56.2018 124.202 55 125.684 55H131.316C132.798 55 134 56.2018 134 57.6842V63H123V57.6842Z" fill="#1EAFFD"/>
<path d="M137 57.6842C137 56.2018 138.202 55 139.684 55H145.316C146.798 55 148 56.2018 148 57.6842V63H137V57.6842Z" fill="#1EAFFD"/>
<path d="M151 57.6842C151 56.2018 152.202 55 153.684 55H159.316C160.798 55 162 56.2018 162 57.6842V63H151V57.6842Z" fill="#1EAFFD"/>
<path d="M176 57.6842C176 56.2018 177.202 55 178.684 55H184.316C185.798 55 187 56.2018 187 57.6842V63H176V57.6842Z" fill="#1EAFFD"/>
<path d="M190 57.6842C190 56.2018 191.202 55 192.684 55H198.316C199.798 55 201 56.2018 201 57.6842V63H190V57.6842Z" fill="#1EAFFD"/>
</svg>
