<svg width="120" height="120" viewBox="0 0 120 120" fill="none" xmlns="http://www.w3.org/2000/svg">
<g clip-path="url(#clip0_1307_6766)">
<g filter="url(#filter0_d_1307_6766)">
<path d="M97.645 48.9741C96.0867 49.8738 94.1077 49.3593 93.2222 47.8257C92.3353 46.2895 92.8807 44.3209 94.439 43.4212L94.9832 43.1071C95.6263 42.7358 95.8743 41.9087 95.4942 41.2503L93.709 38.1583C93.6191 38.004 93.4995 37.869 93.3571 37.7611C93.2147 37.6531 93.0523 37.5743 92.8793 37.5292C92.7062 37.4841 92.5258 37.4735 92.3484 37.4981C92.171 37.5227 92.0001 37.582 91.8456 37.6725L91.4003 37.9296C89.842 38.8293 87.8173 38.407 86.9071 36.8876C86.6875 36.5193 86.5439 36.1108 86.4848 35.6859C86.4257 35.261 86.4522 34.8284 86.5629 34.4135C86.6737 33.9986 86.8663 33.6097 87.1294 33.2697C87.3926 32.9298 87.721 32.6456 88.0954 32.4338L88.6396 32.1197C89.2827 31.7484 89.5322 30.9238 89.1521 30.2654L86.9583 26.4657C86.7923 26.1815 86.5271 25.9686 86.2133 25.8677C85.8996 25.7669 85.5593 25.7851 85.2575 25.9189C83.415 26.6877 81.375 26.8435 79.4402 26.3633C77.5054 25.8831 75.7789 24.7924 74.517 23.2531C74.2728 22.9591 73.9323 22.761 73.5554 22.6935C73.1786 22.626 72.7897 22.6934 72.4571 22.884L21.7756 52.145C21.44 52.3335 21.1834 52.6363 21.0529 52.9979C20.9225 53.3595 20.9268 53.7556 21.0652 54.1135C22.5041 57.8624 21.2708 62.1811 18.0389 64.6947C17.7721 64.8891 17.5862 65.1747 17.5167 65.4969C17.4472 65.8191 17.4989 66.1552 17.662 66.441L19.8686 70.263C20.2359 70.8991 21.0643 71.1343 21.7321 70.7487L22.1773 70.4917C23.7356 69.592 25.7603 70.0143 26.6705 71.5337C26.8902 71.9019 27.0338 72.3105 27.0929 72.7354C27.152 73.1602 27.1254 73.5928 27.0147 74.0078C26.904 74.4227 26.7114 74.8116 26.4482 75.1515C26.1851 75.4915 25.8566 75.7757 25.4822 75.9874L24.9381 76.3016C24.295 76.6729 24.0469 77.4999 24.427 78.1583L26.2122 81.2503C26.5781 81.884 27.4064 82.1192 28.0743 81.7336L28.6184 81.4195C30.1767 80.5198 32.1557 81.0342 33.0426 82.5704C33.9281 84.1041 33.3841 86.0751 31.8258 86.9748L31.2816 87.289C30.6385 87.6603 30.3891 88.4849 30.7692 89.1432L32.9914 92.9923C33.3288 93.5766 34.0559 93.8078 34.6908 93.5366C36.5204 92.7748 38.5455 92.621 40.4662 93.0978C42.3869 93.5747 44.101 94.6569 45.3547 96.1841C45.5982 96.4754 45.938 96.6701 46.313 96.7332C46.6879 96.7963 47.0735 96.7238 47.4004 96.5285L98.1314 67.239C98.4639 67.0535 98.7196 66.7558 98.8524 66.3995C98.9852 66.0432 98.9865 65.6516 98.856 65.2952C98.161 63.4502 98.0787 61.4294 98.6215 59.5308C99.1642 57.6322 100.303 55.9564 101.87 54.7504C102.421 54.3337 102.586 53.5909 102.249 53.0065L100.028 49.16C99.9379 49.0057 99.8183 48.8707 99.676 48.7628C99.5336 48.6548 99.3712 48.576 99.1981 48.5309C99.025 48.4858 98.8446 48.4752 98.6672 48.4998C98.4899 48.5244 98.319 48.5837 98.1644 48.6742L97.645 48.9741Z" fill="#FF243E"/>
<path d="M71.5617 39.8401C70.2062 40.6227 69.726 42.3728 70.5004 43.7142L79.0648 58.5482C79.4598 59.1666 80.079 59.6084 80.7933 59.7816C81.5076 59.9548 82.2621 59.8461 82.8996 59.478C83.5371 59.11 84.0085 58.5109 84.2157 57.8057C84.4229 57.1005 84.3498 56.3434 84.0118 55.692L75.4474 40.8581C75.2604 40.5357 75.0114 40.2536 74.7147 40.0279C74.4181 39.8022 74.0795 39.6373 73.7185 39.5427C73.3574 39.4481 72.9811 39.4257 72.6109 39.4767C72.2408 39.5278 71.8842 39.6513 71.5617 39.8401ZM64.9011 56.8363C65.6562 58.1442 65.8592 59.6995 65.4654 61.1599C65.0716 62.6204 64.1133 63.8664 62.8013 64.6239C61.4893 65.3814 59.9311 65.5883 58.4694 65.1991C57.0077 64.8099 55.7623 63.8564 55.0072 62.5485C54.252 61.2406 54.049 59.6853 54.4428 58.2249C54.8366 56.7644 55.7949 55.5184 57.1069 54.7609C58.4189 54.0034 59.9772 53.7965 61.4389 54.1857C62.9006 54.5749 64.1459 55.5284 64.9011 56.8363ZM35.8718 63.707C35.0973 62.3657 35.5874 60.6098 36.9578 59.8187C37.2811 59.6276 37.6389 59.5021 38.0105 59.4491C38.3822 59.3962 38.7604 59.4169 39.1237 59.5102C39.4869 59.6034 39.8279 59.7673 40.1273 59.9924C40.4266 60.2176 40.6784 60.4996 40.8682 60.8224L49.4326 75.6563C50.207 76.9977 49.7169 78.7536 48.3466 79.5447C46.9763 80.3358 45.2106 79.8824 44.4362 78.541L35.8718 63.707Z" fill="#D41017"/>
<path d="M32.9893 55.5736C29.8851 57.3658 28.7211 61.2334 30.4522 64.2318L41.3158 83.0479C43.0639 86.0759 47.008 86.955 50.0825 85.1799L86.962 63.8875C90.0662 62.0953 91.2316 58.2301 89.4991 55.2293L78.6355 36.4131C76.9044 33.4148 72.973 32.489 69.8688 34.2812L32.9893 55.5736ZM86.1505 62.482L79.163 66.5163L63.6927 39.7209L70.6803 35.6867C73.0672 34.3086 75.9772 35.0647 77.2257 37.2271L88.0892 56.0433C89.3377 58.2058 88.5374 61.1039 86.1505 62.482ZM77.7531 67.3303L57.6685 78.9261L42.1982 52.1308L62.2828 40.5349L77.7531 67.3303ZM40.7883 52.9448L56.2586 79.7401L49.271 83.7744C46.9039 85.141 43.9855 84.4161 42.7256 82.2339L31.8621 63.4178C30.6136 61.2553 31.4138 58.3571 33.8007 56.9791L40.7883 52.9448Z" fill="#D41017"/>
</g>
</g>
<defs>
<filter id="filter0_d_1307_6766" x="10.4863" y="10.668" width="116.937" height="106.087" filterUnits="userSpaceOnUse" color-interpolation-filters="sRGB">
<feFlood flood-opacity="0" result="BackgroundImageFix"/>
<feColorMatrix in="SourceAlpha" type="matrix" values="0 0 0 0 0 0 0 0 0 0 0 0 0 0 0 0 0 0 127 0" result="hardAlpha"/>
<feOffset dx="9" dy="4"/>
<feGaussianBlur stdDeviation="8"/>
<feComposite in2="hardAlpha" operator="out"/>
<feColorMatrix type="matrix" values="0 0 0 0 0.616667 0 0 0 0 0.0359722 0 0 0 0 0.0359722 0 0 0 0.25 0"/>
<feBlend mode="normal" in2="BackgroundImageFix" result="effect1_dropShadow_1307_6766"/>
<feBlend mode="normal" in="SourceGraphic" in2="effect1_dropShadow_1307_6766" result="shape"/>
</filter>
<clipPath id="clip0_1307_6766">
<rect width="120" height="120" fill="white"/>
</clipPath>
</defs>
</svg>
